<svg xmlns="http://www.w3.org/2000/svg" width="185.999" height="228.821" viewBox="0 0 185.999 228.821"><g transform="translate(-113 -141.318)"><path d="M321.624,540.375a6.74,6.74,0,0,0-6.733,6.733V562.86a6.74,6.74,0,0,0,6.733,6.733h8.54a6.741,6.741,0,0,0,6.733-6.733V547.108a6.741,6.741,0,0,0-6.733-6.733Z" transform="translate(-194.556 -199.977)" fill="#01d95e"/><path d="M556.325,569.846h-8.54a7.265,7.265,0,0,1-7.257-7.257V546.838a7.265,7.265,0,0,1,7.257-7.257h8.54a7.265,7.265,0,0,1,7.257,7.257v15.752A7.265,7.265,0,0,1,556.325,569.846Z" transform="translate(-271.394 -199.707)" fill="#01d95e"/><path d="M473.686,543.237H326.632c-6.693,0-12.137-3.945-12.137-8.795V506.164l7.3-7.687H479.944l5.879,7.7v28.262C485.823,539.292,480.379,543.237,473.686,543.237Z" transform="translate(-194.421 -185.71)" fill="#ccc"/><path d="M482.638,498.555H326.012l-1.592-24.406,1.013-2.5,5.887-14.488H476.268l7.961,16.452Z" transform="translate(-197.801 -171.641)" fill="#ccc"/><path d="M407.242,247.172l-1.169,18.338h-34.46V251.887l34.648-6.738Z" transform="translate(-121.08 54.855)" fill="#fff"/><path d="M219.218,251.941v13.623H185.276l-1.163-17.814.991-2.441Z" transform="translate(-57.229 54.801)" fill="#fff"/><path d="M479.409,432.986h-143.2l15.274-50.912a10.218,10.218,0,0,1,9.736-7.316l94.838-.9a10.264,10.264,0,0,1,10.036,7.692Z" transform="translate(-201.814 -143.271)" fill="#ccc"/><path d="M473.565,435.751l-121.178-1.437a.979.979,0,0,1-.921-1.278l11.617-36.244a.979.979,0,0,1,.932-.68h97.466a.979.979,0,0,1,.932.68l12.1,37.682a.979.979,0,0,1-.944,1.278Z" transform="translate(-206.996 -150.851)" fill="#fff"/><path d="M452.3,378.406H419.638c-.275,0-.525-.271-.652-.707a2.2,2.2,0,0,1,.052-1.358l2.693-6.811c.137-.347.361-.554.6-.554h27.275c.238,0,.462.207.6.554l2.693,6.811a2.2,2.2,0,0,1,.052,1.358C452.825,378.135,452.575,378.406,452.3,378.406Z" transform="translate(-229.976 -141.61)" fill="#01d95e"/><path d="M325.249,456.52H303.768V451.8a5.764,5.764,0,0,1,5.757-5.757H325.25Z" transform="translate(-190.768 -167.854)" fill="#ccc"/><path d="M574.721,456.52H553.24V446.041h15.724a5.764,5.764,0,0,1,5.757,5.757Z" transform="translate(-275.722 -167.853)" fill="#ccc"/><ellipse cx="31.186" cy="31.186" rx="31.186" ry="31.186" transform="translate(174.624 141.318)" fill="#01d95e"/><path d="M294.468,58.191l-9.334-12,5.428-4.222,4.42,5.683,14.93-15.761,4.993,4.73Z" transform="translate(-91.63 127.478)" fill="#fff"/></g></svg>