<svg xmlns="http://www.w3.org/2000/svg" width="11.068" height="20.471" viewBox="0 0 11.068 20.471"><g transform="translate(0)"><path d="M32.728,0,30.073,0a4.662,4.662,0,0,0-4.91,5.038V7.361H22.494a.417.417,0,0,0-.417.418v3.366a.417.417,0,0,0,.417.417h2.669v8.492a.417.417,0,0,0,.417.417h3.482a.417.417,0,0,0,.417-.417V11.561H32.6a.417.417,0,0,0,.417-.417V7.778a.418.418,0,0,0-.418-.418H29.481V5.392c0-.946.226-1.427,1.458-1.427h1.788a.417.417,0,0,0,.417-.417V.422A.418.418,0,0,0,32.728,0Z" transform="translate(-22.077)" fill="#fff"/></g></svg>