<svg xmlns="http://www.w3.org/2000/svg" width="20.463" height="20.463" viewBox="0 0 20.463 20.463"><g transform="translate(0)"><path d="M14.816,0H5.647A5.654,5.654,0,0,0,0,5.647v9.169a5.653,5.653,0,0,0,5.647,5.647h9.169a5.654,5.654,0,0,0,5.647-5.647V5.647A5.654,5.654,0,0,0,14.816,0Zm3.832,14.816a3.836,3.836,0,0,1-3.832,3.832H5.647a3.836,3.836,0,0,1-3.831-3.832V5.647A3.836,3.836,0,0,1,5.647,1.816h9.169a3.836,3.836,0,0,1,3.832,3.832v9.169Z" transform="translate(0)" fill="#fff"/><path d="M47.141,40.97a6.173,6.173,0,1,0,6.173,6.173A6.18,6.18,0,0,0,47.141,40.97Zm0,10.22a4.047,4.047,0,1,1,4.047-4.047A4.052,4.052,0,0,1,47.141,51.19Z" transform="translate(-36.909 -36.911)" fill="#fff"/><path d="M120.011,28.251a1.089,1.089,0,1,0,.771.319A1.094,1.094,0,0,0,120.011,28.251Z" transform="translate(-104.136 -24.739)" fill="#fff"/></g></svg>