<svg xmlns="http://www.w3.org/2000/svg" width="364" height="171.206" viewBox="0 0 364 171.206"><g transform="translate(-0.001 0)"><path d="M318.937,540.375a4.05,4.05,0,0,0-4.046,4.046v9.465a4.05,4.05,0,0,0,4.046,4.046h5.132a4.05,4.05,0,0,0,4.046-4.046v-9.465a4.05,4.05,0,0,0-4.046-4.046Z" transform="translate(-245.869 -418.959)" fill="#01d95e"/><path d="M550.02,557.767h-5.132a4.365,4.365,0,0,1-4.36-4.361v-9.465a4.366,4.366,0,0,1,4.36-4.361h5.132a4.366,4.366,0,0,1,4.36,4.361v9.465A4.365,4.365,0,0,1,550.02,557.767Z" transform="translate(-382.094 -418.48)" fill="#01d95e"/><path d="M410.15,525.373H321.787c-4.021,0-7.293-2.371-7.293-5.285V503.1l4.386-4.619h95.031l3.533,4.629v16.982C417.443,523,414.172,525.373,410.15,525.373Z" transform="translate(-245.629 -393.664)" fill="#ccc"/><path d="M419.491,482.035H325.377l-.957-14.665.609-1.5,3.538-8.706h87.1l4.783,9.886Z" transform="translate(-251.621 -368.722)" fill="#ccc"/><path d="M393.023,246.364l-.7,11.019H371.614V249.2l20.82-4.049Z" transform="translate(-224.356 -148.005)" fill="#fff"/><path d="M205.207,249.294v8.186H184.812l-.7-10.7.6-1.467Z" transform="translate(-111.155 -148.101)" fill="#fff"/><path d="M422.255,409.385H336.206l9.178-30.592a6.14,6.14,0,0,1,5.85-4.4l56.987-.543a6.168,6.168,0,0,1,6.031,4.622Z" transform="translate(-258.737 -318.425)" fill="#ccc"/><path d="M424.815,419.93,352,419.067a.588.588,0,0,1-.553-.768l6.98-21.779a.588.588,0,0,1,.56-.409h58.566a.588.588,0,0,1,.56.409l7.268,22.642a.588.588,0,0,1-.567.768Z" transform="translate(-267.922 -331.862)" fill="#fff"/><path d="M438.971,374.642H419.345c-.165,0-.315-.163-.391-.425a1.324,1.324,0,0,1,.031-.816l1.618-4.093c.083-.209.217-.333.36-.333h16.389c.143,0,.278.125.36.333l1.618,4.093a1.324,1.324,0,0,1,.031.816C439.286,374.479,439.136,374.642,438.971,374.642Z" transform="translate(-308.664 -315.479)" fill="#01d95e"/><path d="M316.676,452.338H303.768V449.5a3.463,3.463,0,0,1,3.459-3.459h9.449Z" transform="translate(-239.153 -362.007)" fill="#ccc"/><path d="M566.148,452.338H553.24v-6.3h9.449a3.463,3.463,0,0,1,3.459,3.459Z" transform="translate(-389.768 -362.007)" fill="#ccc"/><rect width="67.052" height="0.792" transform="translate(0.001 157.227) rotate(-19.76)" fill="#01df76"/><rect width="0.792" height="67.052" transform="translate(177.226 135.306) rotate(-70.245)" fill="#01df76"/><path d="M447.885,592.725h-3.777v-4.878h3.777Zm0-9.758h-3.777v-4.879h3.777Z" transform="translate(-323.881 -441.729)" fill="#01d95e"/><path d="M447.885,643.725h-3.777v-4.878h3.777Zm0-9.758h-3.777v-4.879h3.777Z" transform="translate(-323.881 -472.519)" fill="#01df76"/><path d="M722.4,365.074h-4.16l-1.98-16.046h6.14Z" transform="translate(-432.434 -210.721)" fill="#ffb8b8"/><path d="M854.708,625.459H841.294v-.17a5.227,5.227,0,0,1,5.221-5.221h8.193Z" transform="translate(-563.677 -467.073)" fill="#1e874b"/><path d="M846.528,348.672l-3.566,2.143L833,338.08l5.263-3.162Z" transform="translate(-502.912 -202.202)" fill="#ffb8b8"/><path d="M985.1,610.815l-.087-.146A5.227,5.227,0,0,1,986.8,603.5l7.023-4.219,2.776,4.621Z" transform="translate(-649.995 -454.526)" fill="#1e874b"/><path d="M860.948,510.158h-.072a55.864,55.864,0,0,1-6.057-.349c-.767-.076-1.6-.158-2.6-.24l-.034-.006c-.684-.2-.7-6.614-.413-28.557.148-11.239.317-23.978.116-32.09l0-.08.06-.052a30.5,30.5,0,0,1,26.835-6.813l.073.015.038.064c4.089,6.918,10.262,16.883,16.232,26.519,13.7,22.122,17.624,28.628,17.194,29.119l-.052.04c-.936.468-1.638.828-2.236,1.134a73.714,73.714,0,0,1-7.277,3.282l-.11.045-.08-.088c-13.905-15.237-25.477-32.258-32.635-47.993-.836,5.372-1.852,12.386-2.924,19.8-3.085,21.312-5.169,35.345-6.008,36.2Z" transform="translate(-569.896 -359.117)" fill="#1e874b"/><path d="M897.043,255.731c1.4-5.782,2.587-12.3-.054-17.63-1.833-3.7-8.612-4.939-12.5-3.608s-6.7,4.943-7.931,8.881-1.092,8.181-.554,12.275C883.153,255.511,890.3,255.374,897.043,255.731Z" transform="translate(-584.394 -233.975)" fill="#676767"/><circle cx="8.334" cy="8.334" r="8.334" transform="translate(292.254 5.086)" fill="#ffb8b8"/><path d="M893.08,247.259a10.468,10.468,0,1,0-20.924.276C879.29,247.55,886.423,247.565,893.08,247.259Z" transform="translate(-582.303 -235.555)" fill="#676767"/><path d="M859.1,360.948a72.839,72.839,0,0,1,24.356,4.078,55.44,55.44,0,0,0-12.428-36.145l-.061-.074.031-.09c2.184-6.312,4.442-12.835,6.46-19.327l-.031-.109c-1.415-5.03-4.452-10.113-9.284-15.54a2.974,2.974,0,0,0-4.06-.206c-8.589,7.874-13.26,19.672-12.188,30.79l0,.033-.009.032c-3.784,12.819-5.157,19.4-6.369,25.213-.884,4.238-1.649,7.907-3.186,13.15a78.955,78.955,0,0,1,16.768-1.805Z" transform="translate(-564.306 -269.509)" fill="#01d95e"/><path d="M745.281,128.486l-12.31,26.8-7.032-7.118Z" transform="translate(-438.275 -77.571)" opacity="0.1"/><path d="M832.424,395.467l.858,1.668a.066.066,0,0,1-.028.088l-.041.021,4.471,8.687a1.019,1.019,0,0,1-.44,1.373l-5.428,2.794a1.019,1.019,0,0,1-1.373-.44h0l-4.314-8.383-.03.015a.046.046,0,0,1-.062-.02l-.489-.949a.046.046,0,0,1,.02-.062h0l.03-.015-.184-.358-.03.016a.049.049,0,0,1-.065-.021l-.482-.936a.048.048,0,0,1,.021-.065l.03-.016-.251-.488-.031.016a.043.043,0,0,1-.058-.018h0l-.263-.511a.043.043,0,0,1,.018-.058l.031-.016-.532-1.034a1.019,1.019,0,0,1,.44-1.373l5.428-2.794a1.019,1.019,0,0,1,1.373.44l1.252,2.432.041-.021A.066.066,0,0,1,832.424,395.467Z" transform="translate(-553.048 -329.667)" fill="#3f3d56"/><path d="M831.605,394.351l6.587,12.8a.647.647,0,0,1-.279.871l-5.2,2.674a.646.646,0,0,1-.87-.277v0l-6.587-12.8a.647.647,0,0,1,.279-.871h0l.778-.4.051.1a.533.533,0,0,0,.717.23l2.643-1.36a.533.533,0,0,0,.23-.717l-.051-.1.829-.427a.647.647,0,0,1,.871.279Z" transform="translate(-553.953 -330.588)" fill="#fff"/><path d="M840.578,413.962a3.412,3.412,0,0,0,3.073-4.235l10.143-6.645-5.785-2.5-8.745,6.693a3.431,3.431,0,0,0,1.314,6.686Z" transform="translate(-561.016 -334.562)" fill="#ffb8b8"/><path d="M858.69,345.457l-.128-.09c-2.414-1.777-5.094-3.614-7.685-5.391l-.156-.107.123-.143c5.531-6.472,11.069-13.232,16.425-19.771l-.01-.024.05-.026.021-.026.011.009.032-.016-.146.011-1.651-12.946a8.3,8.3,0,0,1,.178-8.892,7.042,7.042,0,0,1,9.164-2.092,6.013,6.013,0,0,1,2.641,4.491,5.423,5.423,0,0,1-1.438,4.441,186.745,186.745,0,0,1,.755,18.9v.059l-.037.049c-5.71,7.254-11.982,14.47-18.047,21.447Z" transform="translate(-569.368 -270.844)" fill="#01d95e"/><circle cx="18.739" cy="18.739" r="18.739" transform="translate(101.644 1.792)" fill="#01d95e"/><path d="M290.743,47.694l-5.609-7.212,3.262-2.537,2.656,3.415,8.971-9.471,3,2.842Z" transform="translate(-172.145 -19.252)" fill="#fff"/><path d="M913.393,633.767H818.686a.4.4,0,0,1,0-.793h94.707a.4.4,0,1,1,0,.793Z" transform="translate(-549.789 -474.865)" fill="#01df76"/></g></svg>