<svg xmlns="http://www.w3.org/2000/svg" width="313.09" height="204.829" viewBox="0 0 313.09 204.829"><path d="M311.018,581.859H0v-.7H311.018a.351.351,0,0,1,.351.351h0A.351.351,0,0,1,311.018,581.859Z" transform="translate(0 -377.381)" fill="#01d95e"/><g transform="translate(44.857 48.794)"><path d="M173.1,455.676H153.612a5.288,5.288,0,0,1-5.282-5.282V393.2a5.288,5.288,0,0,1,5.282-5.282H173.1a5.288,5.288,0,0,1,5.282,5.282v57.194A5.288,5.288,0,0,1,173.1,455.676Z" transform="translate(-141.177 -300.693)" fill="#b1b1b1"/><path d="M717.531,456H698.045a5.288,5.288,0,0,1-5.282-5.282V393.52a5.288,5.288,0,0,1,5.282-5.282h19.486a5.288,5.288,0,0,1,5.282,5.282v57.194A5.288,5.288,0,0,1,717.531,456Z" transform="translate(-494.71 -300.9)" fill="#b1b1b1"/><path d="M171.323,152.026l-28.694,40.753a22.735,22.735,0,0,0-3.818,16.935l8.721,50.807a22.735,22.735,0,0,0,22.408,18.889H338.554a22.735,22.735,0,0,0,22.693-21.346l3.365-54.969a22.735,22.735,0,0,0-6.7-17.553L317.659,145.73a22.735,22.735,0,0,0-16.644-6.562l-111.758,3.221a22.735,22.735,0,0,0-17.935,9.637Z" transform="translate(-134.783 -139.158)" fill="#01d95e"/><path d="M232.364,182.455l-5.486,10.258c-3.5,6.537,1.6,14.256,9.357,14.17l137.355-1.526c8.437-.094,13.189-9.188,8.143-15.584l-8.649-10.963a10.569,10.569,0,0,0-8.491-3.932l-123.22,2.231a10.381,10.381,0,0,0-9.008,5.346Z" transform="translate(-191.454 -162.352)" fill="#fff"/><path d="M728.29,221.084a3.6,3.6,0,0,1-3.6-3.6v-2.255l.452-10.392a3.59,3.59,0,0,1,3.594-3.441h14.3a3.592,3.592,0,0,1,3.175,1.9l1.7,3.195a3.6,3.6,0,0,1-2.446,5.216l-10.78,2.231A2.993,2.993,0,0,0,732.4,216.1l-.637,2.334a3.619,3.619,0,0,1-3.113,2.633A3.529,3.529,0,0,1,728.29,221.084Z" transform="translate(-515.443 -179.574)" fill="#01d95e"/><path d="M147.625,221.066a3.619,3.619,0,0,1-3.113-2.633l-.637-2.334a2.993,2.993,0,0,0-2.293-2.155l-10.78-2.231a3.6,3.6,0,0,1-2.446-5.216l1.7-3.195a3.592,3.592,0,0,1,3.175-1.9h14.3a3.59,3.59,0,0,1,3.594,3.441l.452,10.392v2.255a3.6,3.6,0,0,1-3.6,3.6,3.524,3.524,0,0,1-.356-.018Z" transform="translate(-127.93 -179.574)" fill="#01d95e"/><circle cx="14.141" cy="14.141" r="14.141" transform="translate(25.418 57.765)" fill="#fff"/><circle cx="14.141" cy="14.141" r="14.141" transform="translate(188.331 58.06)" fill="#fff"/></g><g transform="translate(6.896 7.37)"><g transform="translate(50.305 34.027)"><path d="M171.525,126.356a9.345,9.345,0,0,1,3.233,3l9.285,5.521,15.777,7.39s3.721-13.226,8.166-14.071,11.779,8.958,11.779,8.958-12.784,20.7-18.353,18.577S183.4,143.3,183.4,143.3l-1.625-1.321-10.338-6.877a9.346,9.346,0,0,1-4.219-1.3c-3.233-1.868-4.89-5.05-3.7-7.108s4.773-2.211,8.008-.342Z" transform="translate(-163.133 -122.599)" fill="#a0616a"/><path d="M274.768,127.56l8.068-9.5,4.874.7A8.74,8.74,0,0,1,294.2,131.49l-2.808,5.328-16.62-9.259Z" transform="translate(-235.624 -118.062)" fill="#e6e6e6"/></g><path d="M173.411,137.155l-14.2-19.576a.679.679,0,0,1,.117-.922l3.406-2.813a.679.679,0,0,1,1,.147l14.109,21.175a.679.679,0,0,1-.331,1.014l-3.315,1.213a.682.682,0,0,1-.7-.145.659.659,0,0,1-.083-.094Z" transform="translate(-110.197 -81.195)" fill="#3f3d56"/><path d="M175.665,135.914l-14.7-19.05a.591.591,0,0,1,.034-.834l2.922-2.3a.564.564,0,0,1,.479-.093.79.79,0,0,1,.455.307l14.741,20.5a.663.663,0,0,1,.122.543.486.486,0,0,1-.347.358l-2.966.844a.706.706,0,0,1-.659-.189.782.782,0,0,1-.084-.093Z" transform="translate(-111.322 -81.151)" fill="#e6e6e6"/><g transform="translate(21.147 172.532)"><path d="M155.3,514.411l-6.39,13.789-10.426-4.708,8.072-10.426Z" transform="translate(-117.97 -513.066)" fill="#a0616a"/><path d="M106.547,537.531l7.735-1.009s5.381,12.78,1.345,13.453-35.65,3.7-35.65-.336,13.116-9.081,13.116-9.081l9.081-6.39,4.372,3.363Z" transform="translate(-79.977 -526.768)" fill="#1e874b"/></g><path d="M216.624,255.588s9.417,14.125-10.762,22.87L184.338,309.4l-17.825,38.677-10.762-4.036,18.834-58.519,10.762-26.233,5.045-8.072,26.233,4.372Z" transform="translate(-108.034 -170.5)" fill="#1e874b"/><g transform="translate(0 82.264)"><g transform="translate(0 54.837)"><path d="M87.643,412.06l-4.283,14.582-11.007-3.117,6.443-11.5Z" transform="translate(-53.879 -412.021)" fill="#a0616a"/><path d="M44.178,438.263l7.5-2.14s7.21,11.845,3.317,13.107-34.712,8.924-35.308,4.933S31.32,443.243,31.32,443.243l8.037-7.661,4.821,2.681Z" transform="translate(-19.667 -427.321)" fill="#1e874b"/></g><path d="M147.158,255.63,95.469,266.847A10.23,10.23,0,0,0,87.6,274.87l-7.235,36.788L96.2,316.8l7.111-32.846,45.89-1.778-2.043-26.544Z" transform="translate(-59.082 -255.63)" fill="#1e874b"/></g><g transform="translate(92.783 1.576)"><path d="M296.073,75.281,289.682,87.8l17,2.645L306.5,73.613Z" transform="translate(-287.787 -56.748)" fill="#a0616a"/><circle cx="11.835" cy="11.835" r="11.835" fill="#a0616a"/></g><path d="M284.476,160.593l1.952-31.617a39.737,39.737,0,0,0-1.618-22.716l-.67-7.549-15.471,1.009-6.558,10.594-6.222,25.056-1.345,16.816,29.932,8.408Z" transform="translate(-172.187 -71.468)" fill="#e6e6e6"/><g transform="translate(60.828 34.673)"><path d="M199.333,164.5a9.345,9.345,0,0,1,4.392.434l10.733-1.226,17.031-3.668s-5.045-12.78-2.018-16.143,14.8,0,14.8,0,2.354,24.215-3.363,25.9-21.861,1.009-21.861,1.009l-2.093-.067-12.392.784a9.346,9.346,0,0,1-4.146,1.518c-3.7.47-6.95-1.06-7.249-3.417s2.461-4.649,6.167-5.119Z" transform="translate(-193.144 -134.515)" fill="#a0616a"/><path d="M290.512,135.847l.673-12.444,4.3-2.392a8.74,8.74,0,0,1,12.866,6.2l.99,5.941-18.834,2.691Z" transform="translate(-256.371 -119.904)" fill="#e6e6e6"/></g><path d="M302.263,41.7s1.1-5.518-2.207-5.886-6.622-6.99-6.622-6.99-11.424-1.993-11.792,2.79-.227,3.719-.227,3.719S278.7,34.193,279.8,29.41a8.838,8.838,0,0,1,2.014-3.7,13.922,13.922,0,0,1,12.171-4.6c1.933.223,7.689,2.058,8.8,3.309,2.943,3.311,4.257,13.6-.525,17.28Z" transform="translate(-188.417 -21.018)" fill="#3f3d56"/></g><path d="M222.692,448.926a5.591,5.591,0,0,1-4.686-8.638l.169.11-.169-.11,3.691-5.679a5.572,5.572,0,0,1,4.688-2.544h160.55a5.584,5.584,0,0,1,4.25,1.958l4.051,4.738a5.591,5.591,0,0,1-4.218,9.224l-168.292.941h-.033Z" transform="translate(-140.97 -280.566)" fill="#3f3d56"/><g transform="translate(212.534 0)"><g transform="translate(17.403 39.102)"><path d="M751.774,254.477c2.954,1.932,6.344,1.974,7.573.094s-.169-4.969-3.124-6.9a8.832,8.832,0,0,0-3.912-1.448L739.693,238.2l-3.64,6,12.825,7.276A8.832,8.832,0,0,0,751.774,254.477Z" transform="translate(-707.9 -193.776)" fill="#ffb6b6"/><path d="M663.75,152.436l30.954,16,2.693-7.406-21-16.447L675,120.588a9.629,9.629,0,0,0-12.238-8.7h0a9.672,9.672,0,0,0-6.681,11.74l7.666,28.812Z" transform="translate(-655.764 -111.515)" fill="#e6e6e6"/></g><path d="M681.773,81.646,683.22,72.6l-9.769-3.98L672,82.37Z" transform="translate(-648.906 -44.56)" fill="#ffb6b6"/><path d="M611.552,248.012s-2.8,17.528,8.413,19.631,36.809,3.506,36.809,3.506l32.953,39.964,6.661-7.362-28.4-43.82-22.787-14.373-33.654,2.454Z" transform="translate(-609.449 -159.456)" fill="#1e874b"/><path d="M616.036,244.463s-6.54,16.5,3.954,20.989,35.172,11.408,35.172,11.408l23.5,46.161,8.1-5.741-18.213-48.937-19.126-18.974-33.385-4.906Z" transform="translate(-611.255 -158.745)" fill="#1e874b"/><path d="M640.837,97.694l-12.62-2.1-8.554,4.761c-4.978,7.241-5.39,30.209-6.565,38.918l-6.967,16.268,22.085-3.155,17.879-1.753-5.96-38.912.7-14.022Z" transform="translate(-606.131 -62.073)" fill="#e6e6e6"/><g transform="translate(15.228)"><circle cx="9.962" cy="9.962" r="9.962" transform="translate(5.208 11.025)" fill="#ffb6b6"/><path d="M663.935,7.594c.288.168.674-.086.767-.407a1.668,1.668,0,0,0-.122-.977l-.537-1.592a8.175,8.175,0,0,0-1.611-3.157A5.85,5.85,0,0,0,657.422.072a7.358,7.358,0,0,0-5.613,3.6,4.905,4.905,0,0,0,1.312,6.189,14.641,14.641,0,0,0-3.546,10.811c.151,4.167,4.692,8,7.653,10.938a3.205,3.205,0,0,0,.9-2.962c-.364-.683.157-1.473-.293-2.1s-.827.372-.372-.253c.287-.394-.834-1.3-.407-1.538,2.066-1.142,2.753-3.717,4.05-5.689a9.692,9.692,0,0,1,7.078-4.256,6.693,6.693,0,0,1,4.49,1.026,4.208,4.208,0,0,1,1.812,4.066,3.612,3.612,0,0,0-.751-5.653,5.9,5.9,0,0,0-1.252-5.561c-1.335-1.472-6.749-1.221-8.7-.834" transform="translate(-649.56 0)" fill="#2f2e41"/><path d="M674.517,42.393c-2.581.279-4.444,2.514-6.018,4.579-.907,1.19-1.857,2.5-1.834,4,.023,1.513,1.034,2.81,1.518,4.243a6.4,6.4,0,0,1-1.86,6.736,3.715,3.715,0,0,0,4.188-2.9c.373-2.17-1.271-4.264-1.077-6.457.172-1.932,1.694-3.419,2.989-4.864s2.51-3.362,1.915-5.208" transform="translate(-660.444 -27.528)" fill="#2f2e41"/></g><g transform="translate(9.485 40.975)"><path d="M729.193,259.821c2.954,1.932,6.344,1.974,7.573.094s-.169-4.969-3.124-6.9a8.832,8.832,0,0,0-3.912-1.448l-12.617-8.027-3.641,6,12.825,7.276A8.833,8.833,0,0,0,729.193,259.821Z" transform="translate(-685.319 -199.12)" fill="#ffb6b6"/><path d="M641.169,157.78l30.954,16,2.693-7.406-21-16.447-1.4-23.994a9.629,9.629,0,0,0-12.238-8.7h0a9.672,9.672,0,0,0-6.681,11.74l7.666,28.812Z" transform="translate(-633.183 -116.859)" fill="#e6e6e6"/></g><path d="M791.247,449.294l.716.409s4.908-2.8,7.362,0,4.207,9.816,4.207,9.816,10.166,8.413,4.207,8.413c-4.486,0-15.13-4.966-20.119-7.422a3.459,3.459,0,0,1-1.715-4.31,8.61,8.61,0,0,1,1.852-3.343,5.063,5.063,0,0,0,1.4-2.673,1.427,1.427,0,0,1,2.088-.891Z" transform="translate(-722.727 -291.21)" fill="#01d95e"/><path d="M830.238,411.3l.716.409s4.908-2.8,7.362,0,4.207,9.816,4.207,9.816,10.166,8.413,4.207,8.413c-4.486,0-15.13-4.966-20.119-7.422a3.459,3.459,0,0,1-1.715-4.31,8.608,8.608,0,0,1,1.852-3.343,5.063,5.063,0,0,0,1.4-2.673,1.427,1.427,0,0,1,2.088-.891Z" transform="translate(-748.046 -266.539)" fill="#01d95e"/></g></svg>