<svg xmlns="http://www.w3.org/2000/svg" width="335.333" height="234.464" viewBox="0 0 335.333 234.464"><path d="M895.042,539.856a3.54,3.54,0,0,1,.747-5.377l-2.807-12.263,6.123,2.291,1.727,11.294a3.559,3.559,0,0,1-5.79,4.055Z" transform="translate(-611.912 -377.031)" fill="#ffb8b8"/><path d="M888.686,484.672,883.3,474.266l.728-26.2.346.729c.4.849,9.847,20.842,9.174,27.536l1.079,6.117Z" transform="translate(-605.979 -331.58)" fill="#1e874b"/><path d="M721.306,567.84h4.316l2.053-16.648H721.3Z" transform="translate(-442.109 -337.842)" fill="#ffb8b8"/><path d="M885.3,737.69h8.5a5.417,5.417,0,0,1,5.416,5.416v.176H885.3Z" transform="translate(-607.202 -509.101)" fill="#676767"/><path d="M611.134,560.329l4.158,1.156L621.731,546l-6.137-1.707Z" transform="translate(-374.582 -333.611)" fill="#ffb8b8"/><path d="M773.831,728.588l8.189,2.277h0a5.417,5.417,0,0,1,3.767,6.67l-.047.17-13.408-3.728Z" transform="translate(-537.962 -503.523)" fill="#676767"/><path d="M810.016,582.052l-8.711-62.367L782.492,581.7,767.7,576.648l21.2-83.039.14-.01,22.21-1.545L827.3,577.011Z" transform="translate(-535.122 -358.544)" fill="#01d95e"/><path d="M836.882,415.563a33.046,33.046,0,0,0-19.01-2.464s-5.809,14.014,0,19.593l1.584,14.028s14.786,8.8,19.715-1.408l-.7-11.617s3.521-5.572.7-9.651A13.478,13.478,0,0,1,836.882,415.563Z" transform="translate(-564.291 -309.887)" fill="#e6e6e6"/><path d="M869.6,482.615l1.421-29.49L867,418.043l.185-.028c5.276-.8,6.968,8.294,7.038,8.681l9.184,51.922Z" transform="translate(-595.988 -313.133)" fill="#1e874b"/><path d="M801.758,478.824l-16.235-1.8,0-.177c.058-2.4,1.455-58.914,5.37-62.916,3.939-4.026,11.371-2.284,11.686-2.208l.157.038L801.4,435.668Z" transform="translate(-546.046 -309.035)" fill="#1e874b"/><path d="M808.343,482.767a3.54,3.54,0,0,1-4.609-2.868l-12.346-2.419,4.581-4.664,11.021,3.012a3.559,3.559,0,0,1,1.352,6.938Z" transform="translate(-549.642 -346.753)" fill="#ffb8b8"/><path d="M777.968,445.349l-4.022-.865c-5.938,1.786-16.3-4.5-20.494-7.294-.788-.525-1.044-1.567-.76-3.094a9.022,9.022,0,0,1,3.316-5.386l14.755-11.7,3.724-.623,1.106,6.269-9.4,10.1,13.839,7.532Z" transform="translate(-525.855 -312.166)" fill="#1e874b"/><path d="M814.061,366.663v-8.129a12.967,12.967,0,1,1,25.934,0v8.129a1.744,1.744,0,0,1-1.742,1.742H815.8A1.744,1.744,0,0,1,814.061,366.663Z" transform="translate(-563.538 -268.758)" fill="#676767"/><circle cx="9.507" cy="9.507" r="9.507" transform="translate(253.461 80.553)" fill="#ffb8b8"/><path d="M820.6,361.691a.968.968,0,0,1-.227-.771l1.126-7.842a.969.969,0,0,1,.548-.743,19.627,19.627,0,0,1,17.325-.01.975.975,0,0,1,.553.788l.752,7.852a.967.967,0,0,1-.963,1.06h-1.906a.971.971,0,0,1-.877-.558l-.823-1.763a.581.581,0,0,0-1.1.173l-.163,1.3a.969.969,0,0,1-.96.848H821.336A.968.968,0,0,1,820.6,361.691Z" transform="translate(-567.404 -271.668)" fill="#676767"/><rect width="213.276" height="132.809" transform="translate(0 15.625)" fill="#e6e6e6"/><rect width="39.062" height="25.39" transform="translate(14.302 41.21)" fill="#fff"/><rect width="39.062" height="25.39" transform="translate(62.839 41.21)" fill="#fff"/><rect width="39.062" height="25.39" transform="translate(111.376 41.21)" fill="#fff"/><rect width="39.062" height="25.39" transform="translate(159.913 41.21)" fill="#fff"/><rect width="39.062" height="25.39" transform="translate(14.302 77.147)" fill="#fff"/><rect width="39.062" height="25.39" transform="translate(62.839 77.147)" fill="#fff"/><rect width="39.062" height="25.39" transform="translate(111.376 77.147)" fill="#fff"/><rect width="39.062" height="25.39" transform="translate(159.913 77.147)" fill="#fff"/><rect width="39.062" height="25.39" transform="translate(14.302 113.083)" fill="#fff"/><rect width="39.062" height="25.39" transform="translate(62.839 113.083)" fill="#fff"/><rect width="39.062" height="25.39" transform="translate(111.376 113.083)" fill="#fff"/><rect width="39.062" height="25.39" transform="translate(159.913 113.083)" fill="#fff"/><circle cx="5.859" cy="5.859" r="5.859" transform="translate(49.999 19.531)" fill="#fff"/><circle cx="5.859" cy="5.859" r="5.859" transform="translate(146.872 19.531)" fill="#fff"/><rect width="4.687" height="26.952" transform="translate(53.514)" fill="#e6e6e6"/><rect width="4.687" height="26.952" transform="translate(150.387)" fill="#e6e6e6"/><path d="M625.351,272.431a8.808,8.808,0,1,1-1.365-4.719A8.808,8.808,0,0,1,625.351,272.431Z" transform="translate(-437.074 -218.526)" fill="#01d95e"/><path d="M630.267,272.12l-8.7,8.693c-.546-.846-3.591-4.778-3.591-4.778a12.332,12.332,0,0,1,1.246-1.1l2.525,3.366,7.5-7.5a8.8,8.8,0,0,1,1.018,1.315Z" transform="translate(-443.355 -222.934)" fill="#fff"/><path d="M374.56,365.273a8.808,8.808,0,1,1-1.365-4.719A8.808,8.808,0,0,1,374.56,365.273Z" transform="translate(-283.357 -275.431)" fill="#01d95e"/><path d="M379.476,364.963l-8.7,8.694c-.546-.846-3.591-4.778-3.591-4.778a12.324,12.324,0,0,1,1.246-1.1l2.525,3.366,7.5-7.5A8.8,8.8,0,0,1,379.476,364.963Z" transform="translate(-289.638 -279.84)" fill="#fff"/><path d="M249.163,365.273a8.808,8.808,0,1,1-1.365-4.719A8.808,8.808,0,0,1,249.163,365.273Z" transform="translate(-206.498 -275.431)" fill="#01d95e"/><path d="M254.08,364.963l-8.7,8.694c-.546-.846-3.591-4.778-3.591-4.778a12.324,12.324,0,0,1,1.246-1.1l2.525,3.366,7.5-7.5a8.8,8.8,0,0,1,1.018,1.315Z" transform="translate(-212.779 -279.84)" fill="#fff"/><path d="M798.031,751.644H650.557a.387.387,0,0,1,0-.774H798.031a.387.387,0,0,1,0,.774Z" transform="translate(-463.085 -517.18)" fill="#01d95e"/></svg>