<svg xmlns="http://www.w3.org/2000/svg" width="126" height="19.583" viewBox="0 0 126 19.583"><path d="M600.423,3506.339a6.951,6.951,0,0,0-1.8-1.144,12.033,12.033,0,0,0-2.284-.744l-1.708-.409a9.372,9.372,0,0,1-1.17-.339,4.657,4.657,0,0,1-.965-.474,2.125,2.125,0,0,1-.654-.656,1.545,1.545,0,0,1-.218-.892,1.8,1.8,0,0,1,.357-1.1,2.335,2.335,0,0,1,1.035-.758,4.439,4.439,0,0,1,1.662-.274,3.785,3.785,0,0,1,2.293.623,2.354,2.354,0,0,1,.956,1.748h3.852a5.345,5.345,0,0,0-.91-2.994,5.854,5.854,0,0,0-2.465-2.018,8.8,8.8,0,0,0-3.7-.725,9.06,9.06,0,0,0-3.713.725,6.168,6.168,0,0,0-2.567,2.018,4.98,4.98,0,0,0-.924,3.022,4.253,4.253,0,0,0,1.383,3.357,8.676,8.676,0,0,0,3.8,1.832l2.07.521a11.37,11.37,0,0,1,1.759.558,2.943,2.943,0,0,1,1.1.744,1.6,1.6,0,0,1,.376,1.079,1.912,1.912,0,0,1-.418,1.218,2.716,2.716,0,0,1-1.174.828,4.842,4.842,0,0,1-1.778.3,5.085,5.085,0,0,1-1.861-.321,2.959,2.959,0,0,1-1.309-.958,2.88,2.88,0,0,1-.552-1.594H587a6.213,6.213,0,0,0,1,3.445,5.827,5.827,0,0,0,2.655,2.1,10.4,10.4,0,0,0,4.006.707,10.106,10.106,0,0,0,3.968-.7,5.649,5.649,0,0,0,2.525-1.981,5.269,5.269,0,0,0,.887-3.027,5.11,5.11,0,0,0-.432-2.111A4.816,4.816,0,0,0,600.423,3506.339Z" transform="translate(-587 -3496.185)" fill="#fff"/><path d="M1114.138,3509.3a5.064,5.064,0,0,0-2.595-.646,4.756,4.756,0,0,0-2.7.72,4.069,4.069,0,0,0-1.56,1.985h-.167v-7.281h-3.843v19.043h3.955v-8.257a3.39,3.39,0,0,1,.357-1.576,2.4,2.4,0,0,1,.965-1,2.879,2.879,0,0,1,1.425-.344,2.422,2.422,0,0,1,1.88.735,2.9,2.9,0,0,1,.664,2.055v8.387h3.955v-9.094a6.164,6.164,0,0,0-.608-2.878A4.42,4.42,0,0,0,1114.138,3509.3Z" transform="translate(-1086.27 -3503.817)" fill="#fff"/><path d="M1569.6,3643.9a6,6,0,0,0-1.94-.865,9.16,9.16,0,0,0-2.279-.279,8.07,8.07,0,0,0-3,.516,5.314,5.314,0,0,0-2.112,1.469,5.017,5.017,0,0,0-1.1,2.255l3.658.3a2.2,2.2,0,0,1,.835-1.176,2.78,2.78,0,0,1,1.7-.469,2.3,2.3,0,0,1,1.564.483,1.721,1.721,0,0,1,.552,1.367v.056a.777.777,0,0,1-.343.688,2.8,2.8,0,0,1-1.1.349q-.761.116-2.005.247a12.908,12.908,0,0,0-2.019.353,5.753,5.753,0,0,0-1.713.744,3.534,3.534,0,0,0-1.188,1.3,4.167,4.167,0,0,0-.437,2,4.22,4.22,0,0,0,.617,2.357,3.846,3.846,0,0,0,1.685,1.422,5.883,5.883,0,0,0,2.432.479,5.626,5.626,0,0,0,1.866-.284,4.133,4.133,0,0,0,1.383-.791,3.97,3.97,0,0,0,.919-1.176h.111v1.981h3.75V3647.6a4.565,4.565,0,0,0-.492-2.189A4.228,4.228,0,0,0,1569.6,3643.9Zm-2.093,8.22a2.449,2.449,0,0,1-.381,1.348,2.7,2.7,0,0,1-1.049.944,3.284,3.284,0,0,1-1.541.349,2.508,2.508,0,0,1-1.5-.423,1.421,1.421,0,0,1-.589-1.232,1.5,1.5,0,0,1,.288-.935,1.967,1.967,0,0,1,.808-.6,4.906,4.906,0,0,1,1.216-.325q.325-.047.724-.107t.8-.139a7.347,7.347,0,0,0,.719-.177,2.024,2.024,0,0,0,.506-.219Z" transform="translate(-1526.665 -3637.925)" fill="#fff"/><path d="M2027.1,3642.2a3.453,3.453,0,0,0-2.117.683,3.712,3.712,0,0,0-1.309,2.013h-.149V3642.4h-3.834v14.283h3.955V3648.6a2.981,2.981,0,0,1,.395-1.543,2.794,2.794,0,0,1,1.077-1.046,3.164,3.164,0,0,1,1.555-.377,6.906,6.906,0,0,1,.9.065,5.124,5.124,0,0,1,.77.149v-3.515a4.478,4.478,0,0,0-.6-.1A5.947,5.947,0,0,0,2027.1,3642.2Z" transform="translate(-1972.511 -3637.38)" fill="#fff"/><path d="M2298.2,3644.564a5.928,5.928,0,0,0-2.135-1.353,7.54,7.54,0,0,0-2.632-.451,6.985,6.985,0,0,0-3.653.93,6.312,6.312,0,0,0-2.409,2.594,9.282,9.282,0,0,0,0,7.778,6.064,6.064,0,0,0,2.437,2.548,7.545,7.545,0,0,0,3.783.9,8.287,8.287,0,0,0,3.114-.544,5.7,5.7,0,0,0,2.209-1.525,5,5,0,0,0,1.137-2.3l-3.657-.242a2.422,2.422,0,0,1-.594.911,2.508,2.508,0,0,1-.937.558,3.741,3.741,0,0,1-1.207.186,3.373,3.373,0,0,1-1.717-.418,2.83,2.83,0,0,1-1.119-1.19,3.974,3.974,0,0,1-.395-1.832v-.01h9.71v-1.088a9.07,9.07,0,0,0-.51-3.185A6.17,6.17,0,0,0,2298.2,3644.564Zm-7.77,4.082a3.125,3.125,0,0,1,.4-1.408,2.962,2.962,0,0,1,1.081-1.106,3.041,3.041,0,0,1,1.592-.414,2.99,2.99,0,0,1,1.518.376,2.7,2.7,0,0,1,1.026,1.037,3.038,3.038,0,0,1,.371,1.515Z" transform="translate(-2230.543 -3637.925)" fill="#fff"/><path d="M2797.837,3511.453l-6.255-3.618a.423.423,0,0,0-.634.366v1.3l-3.089-3.362,1.092-.788a6.759,6.759,0,0,0,1.861-1.957,4.608,4.608,0,0,0,.664-2.441,4.328,4.328,0,0,0-.6-2.236,4.443,4.443,0,0,0-1.708-1.637,5.324,5.324,0,0,0-2.632-.618,5.555,5.555,0,0,0-2.729.646,4.669,4.669,0,0,0-1.815,1.753,4.855,4.855,0,0,0-.645,2.492,5.277,5.277,0,0,0,.492,2.274,9.914,9.914,0,0,0,1.23,1.971l.1.121a16.729,16.729,0,0,0-1.782,1.4,5.7,5.7,0,0,0-1.244,1.594,4.26,4.26,0,0,0-.446,1.981,4.975,4.975,0,0,0,.766,2.71,5.3,5.3,0,0,0,2.2,1.92,7.6,7.6,0,0,0,3.4.707,9.148,9.148,0,0,0,2.576-.381,6.71,6.71,0,0,0,2.286-1.176l.031.035v.92a.422.422,0,0,0,.634.366l6.255-3.617A.424.424,0,0,0,2797.837,3511.453Zm-12.873-10.909a1.776,1.776,0,0,1,.636-.642,1.835,1.835,0,0,1,.965-.246,1.66,1.66,0,0,1,1.291.474,1.508,1.508,0,0,1,.455,1.051,1.96,1.96,0,0,1-.334,1.1,3.449,3.449,0,0,1-1.049.963l-.99.652a8.521,8.521,0,0,1-.866-1.266,2.514,2.514,0,0,1-.334-1.208A1.729,1.729,0,0,1,2784.965,3500.544Zm3.268,11.855a4.618,4.618,0,0,1-1.982.46,3.139,3.139,0,0,1-1.439-.312,2.321,2.321,0,0,1-.947-.851,2.265,2.265,0,0,1-.334-1.218,2.171,2.171,0,0,1,.376-1.148,4.431,4.431,0,0,1,1.165-1.176l.109-.079,3.6,4.024A5.58,5.58,0,0,1,2788.232,3512.4Z" transform="translate(-2707.485 -3496.457)" fill="#fff"/><path d="M3421.7,3508.329h4.083a4.1,4.1,0,0,1-.514,1.99,3.466,3.466,0,0,1-1.485,1.38,5.14,5.14,0,0,1-2.334.488,4.622,4.622,0,0,1-2.609-.73,4.7,4.7,0,0,1-1.708-2.125,8.506,8.506,0,0,1-.6-3.385,8.294,8.294,0,0,1,.613-3.371,4.746,4.746,0,0,1,1.713-2.106,4.541,4.541,0,0,1,2.558-.725,4.915,4.915,0,0,1,1.425.2,3.837,3.837,0,0,1,1.151.563,3.523,3.523,0,0,1,.859.893,4.267,4.267,0,0,1,.548,1.2h4.084a6.972,6.972,0,0,0-.882-2.59,7.2,7.2,0,0,0-1.768-2.032,8.148,8.148,0,0,0-2.474-1.325,9.358,9.358,0,0,0-3.008-.47,9.162,9.162,0,0,0-3.5.66,8.184,8.184,0,0,0-2.832,1.925,8.767,8.767,0,0,0-1.889,3.083,11.843,11.843,0,0,0-.673,4.133,11.234,11.234,0,0,0,1.127,5.2,8.125,8.125,0,0,0,3.152,3.375,9.843,9.843,0,0,0,8.949.214,7.173,7.173,0,0,0,2.915-2.771,8.353,8.353,0,0,0,1.059-4.31v-2.4H3421.7Z" transform="translate(-3319.407 -3496.185)" fill="#fff"/><path d="M3999.986,3646.27a6.248,6.248,0,0,0-2.428-2.585,8.006,8.006,0,0,0-7.473,0,6.249,6.249,0,0,0-2.427,2.585,9.168,9.168,0,0,0,0,7.727,6.248,6.248,0,0,0,2.427,2.585,8.006,8.006,0,0,0,7.473,0,6.247,6.247,0,0,0,2.428-2.585,9.166,9.166,0,0,0,0-7.727Zm-3.5,6.067a3.462,3.462,0,0,1-1,1.539,2.44,2.44,0,0,1-1.643.562,2.508,2.508,0,0,1-1.667-.562,3.4,3.4,0,0,1-1.012-1.539,7.457,7.457,0,0,1,0-4.445,3.434,3.434,0,0,1,1.012-1.543,2.5,2.5,0,0,1,1.667-.567,2.429,2.429,0,0,1,1.643.567,3.494,3.494,0,0,1,1,1.543,7.457,7.457,0,0,1,0,4.445Z" transform="translate(-3874.84 -3637.925)" fill="#fff"/></svg>