<svg xmlns="http://www.w3.org/2000/svg" width="268" height="41.583" viewBox="0 0 268 41.583"><path d="M615.551,3517.746a14.79,14.79,0,0,0-3.831-2.428,25.652,25.652,0,0,0-4.857-1.58l-3.633-.869a20.029,20.029,0,0,1-2.488-.721,9.927,9.927,0,0,1-2.054-1.007,4.524,4.524,0,0,1-1.392-1.392,3.278,3.278,0,0,1-.464-1.9,3.816,3.816,0,0,1,.76-2.33,4.965,4.965,0,0,1,2.2-1.609,9.448,9.448,0,0,1,3.534-.583,8.059,8.059,0,0,1,4.877,1.323,5,5,0,0,1,2.034,3.712h8.194a11.336,11.336,0,0,0-1.935-6.358,12.441,12.441,0,0,0-5.242-4.284,18.747,18.747,0,0,0-7.868-1.54,19.3,19.3,0,0,0-7.9,1.54,13.11,13.11,0,0,0-5.459,4.284,10.562,10.562,0,0,0-1.965,6.417,9.025,9.025,0,0,0,2.942,7.128,18.461,18.461,0,0,0,8.076,3.889l4.4,1.106a24.1,24.1,0,0,1,3.742,1.184,6.253,6.253,0,0,1,2.33,1.58,3.388,3.388,0,0,1,.8,2.291,4.055,4.055,0,0,1-.889,2.586,5.781,5.781,0,0,1-2.5,1.758,10.316,10.316,0,0,1-3.781.632,10.837,10.837,0,0,1-3.959-.681,6.3,6.3,0,0,1-2.784-2.034,6.11,6.11,0,0,1-1.175-3.386H587a13.179,13.179,0,0,0,2.122,7.315,12.4,12.4,0,0,0,5.647,4.452,22.175,22.175,0,0,0,8.52,1.5,21.515,21.515,0,0,0,8.441-1.491,12.01,12.01,0,0,0,5.371-4.206,11.174,11.174,0,0,0,1.886-6.427,10.835,10.835,0,0,0-.918-4.482A10.222,10.222,0,0,0,615.551,3517.746Z" transform="translate(-587 -3496.185)" fill="#fff"/><path d="M1126.383,3515.164a10.782,10.782,0,0,0-5.519-1.372,10.128,10.128,0,0,0-5.746,1.53,8.642,8.642,0,0,0-3.317,4.216h-.355v-15.46h-8.174v40.437h8.411V3526.98a7.19,7.19,0,0,1,.76-3.346,5.111,5.111,0,0,1,2.053-2.123,6.131,6.131,0,0,1,3.031-.731,5.156,5.156,0,0,1,4,1.56,6.149,6.149,0,0,1,1.412,4.364v17.809h8.411V3525.2a13.073,13.073,0,0,0-1.293-6.111A9.389,9.389,0,0,0,1126.383,3515.164Z" transform="translate(-1067.109 -3503.524)" fill="#fff"/><path d="M1581.914,3645.188a12.779,12.779,0,0,0-4.127-1.836,19.516,19.516,0,0,0-4.847-.592,17.191,17.191,0,0,0-6.387,1.1,11.3,11.3,0,0,0-4.492,3.119,10.64,10.64,0,0,0-2.33,4.789l7.78.631a4.678,4.678,0,0,1,1.777-2.5,5.925,5.925,0,0,1,3.613-1,4.9,4.9,0,0,1,3.327,1.026,3.652,3.652,0,0,1,1.175,2.9v.118a1.65,1.65,0,0,1-.731,1.461,5.961,5.961,0,0,1-2.35.74q-1.619.248-4.265.523a27.444,27.444,0,0,0-4.294.75,12.252,12.252,0,0,0-3.643,1.58,7.517,7.517,0,0,0-2.527,2.765,8.837,8.837,0,0,0-.928,4.245,8.95,8.95,0,0,0,1.313,5.006,8.174,8.174,0,0,0,3.584,3.02,12.527,12.527,0,0,0,5.173,1.018,11.982,11.982,0,0,0,3.969-.6,8.8,8.8,0,0,0,2.942-1.678,8.44,8.44,0,0,0,1.955-2.5h.237v4.206h7.977v-20.456a9.683,9.683,0,0,0-1.047-4.649A8.985,8.985,0,0,0,1581.914,3645.188Zm-4.453,17.454a5.194,5.194,0,0,1-.809,2.863,5.736,5.736,0,0,1-2.231,2,6.994,6.994,0,0,1-3.277.74,5.342,5.342,0,0,1-3.189-.9,3.017,3.017,0,0,1-1.254-2.616,3.171,3.171,0,0,1,.612-1.985,4.176,4.176,0,0,1,1.718-1.273,10.457,10.457,0,0,1,2.586-.691q.691-.1,1.54-.227t1.7-.3a15.659,15.659,0,0,0,1.53-.375,4.308,4.308,0,0,0,1.076-.464Z" transform="translate(-1490.603 -3632.493)" fill="#fff"/><path d="M2035.45,3642.2a7.349,7.349,0,0,0-4.5,1.451,7.878,7.878,0,0,0-2.784,4.275h-.316v-5.292h-8.155v30.328h8.411V3655.8a6.323,6.323,0,0,1,.839-3.277,5.937,5.937,0,0,1,2.29-2.221,6.737,6.737,0,0,1,3.307-.8,14.747,14.747,0,0,1,1.915.138,10.95,10.95,0,0,1,1.639.316v-7.464a9.631,9.631,0,0,0-1.283-.217A12.773,12.773,0,0,0,2035.45,3642.2Z" transform="translate(-1919.338 -3631.969)" fill="#fff"/><path d="M2311.361,3646.59a12.614,12.614,0,0,0-4.541-2.873,16.047,16.047,0,0,0-5.6-.958,14.878,14.878,0,0,0-7.77,1.974,13.415,13.415,0,0,0-5.124,5.509,19.681,19.681,0,0,0,0,16.517,12.886,12.886,0,0,0,5.183,5.41,16.077,16.077,0,0,0,8.046,1.905,17.65,17.65,0,0,0,6.624-1.155,12.142,12.142,0,0,0,4.7-3.238,10.6,10.6,0,0,0,2.419-4.886l-7.78-.514a5.145,5.145,0,0,1-1.263,1.935,5.334,5.334,0,0,1-1.995,1.185,7.958,7.958,0,0,1-2.567.395,7.185,7.185,0,0,1-3.653-.888,6.013,6.013,0,0,1-2.38-2.528,8.434,8.434,0,0,1-.839-3.889v-.02h20.653v-2.31a19.221,19.221,0,0,0-1.086-6.763A13.1,13.1,0,0,0,2311.361,3646.59Zm-16.527,8.667a6.627,6.627,0,0,1,.84-2.991,6.3,6.3,0,0,1,2.3-2.349,6.473,6.473,0,0,1,3.386-.879,6.368,6.368,0,0,1,3.228.8,5.753,5.753,0,0,1,2.182,2.2,6.45,6.45,0,0,1,.79,3.218Z" transform="translate(-2167.467 -3632.493)" fill="#fff"/><path d="M2818.282,3528.29l-13.305-7.682a.9.9,0,0,0-1.348.778v2.768l-6.569-7.139,2.323-1.673a14.375,14.375,0,0,0,3.959-4.156,9.773,9.773,0,0,0,1.411-5.183,9.185,9.185,0,0,0-1.273-4.749,9.442,9.442,0,0,0-3.633-3.475,11.339,11.339,0,0,0-5.6-1.313,11.827,11.827,0,0,0-5.8,1.373,9.916,9.916,0,0,0-3.86,3.722,10.292,10.292,0,0,0-1.373,5.291,11.184,11.184,0,0,0,1.047,4.828,21.086,21.086,0,0,0,2.616,4.186l.207.257a35.666,35.666,0,0,0-3.79,2.981,12.122,12.122,0,0,0-2.646,3.386,9.036,9.036,0,0,0-.948,4.206,10.552,10.552,0,0,0,1.629,5.756,11.253,11.253,0,0,0,4.669,4.077,16.175,16.175,0,0,0,7.226,1.5,19.484,19.484,0,0,0,5.479-.81,14.289,14.289,0,0,0,4.862-2.5l.066.073v1.954a.9.9,0,0,0,1.348.778l13.305-7.682A.9.9,0,0,0,2818.282,3528.29Zm-27.38-23.165a3.774,3.774,0,0,1,1.353-1.362,3.908,3.908,0,0,1,2.053-.523,3.536,3.536,0,0,1,2.745,1.007,3.2,3.2,0,0,1,.967,2.231,4.159,4.159,0,0,1-.711,2.34,7.328,7.328,0,0,1-2.231,2.044l-2.106,1.384a18.1,18.1,0,0,1-1.843-2.688,5.332,5.332,0,0,1-.71-2.566A3.669,3.669,0,0,1,2790.9,3505.125Zm6.95,25.174a9.837,9.837,0,0,1-4.215.978,6.683,6.683,0,0,1-3.061-.662,4.935,4.935,0,0,1-2.014-1.807,4.8,4.8,0,0,1-.711-2.587,4.606,4.606,0,0,1,.8-2.438,9.416,9.416,0,0,1,2.478-2.5l.232-.167,7.664,8.545A11.79,11.79,0,0,1,2797.852,3530.3Z" transform="translate(-2626.104 -3496.447)" fill="#01d95e"/><path d="M3432.123,3521.972h8.684a8.68,8.68,0,0,1-1.092,4.225,7.372,7.372,0,0,1-3.159,2.932,10.956,10.956,0,0,1-4.966,1.037,9.842,9.842,0,0,1-5.548-1.55,9.978,9.978,0,0,1-3.633-4.512,18.03,18.03,0,0,1-1.284-7.187,17.589,17.589,0,0,1,1.3-7.158,10.084,10.084,0,0,1,3.643-4.472,9.669,9.669,0,0,1,5.439-1.54,10.458,10.458,0,0,1,3.031.414,8.152,8.152,0,0,1,2.448,1.195,7.469,7.469,0,0,1,1.827,1.9,9.036,9.036,0,0,1,1.165,2.557h8.688a14.777,14.777,0,0,0-1.876-5.5,15.3,15.3,0,0,0-3.761-4.314,17.341,17.341,0,0,0-5.262-2.813,19.934,19.934,0,0,0-6.4-1,19.514,19.514,0,0,0-7.443,1.4,17.408,17.408,0,0,0-6.022,4.087,18.621,18.621,0,0,0-4.018,6.545,25.106,25.106,0,0,0-1.432,8.777,23.819,23.819,0,0,0,2.4,11.047,17.265,17.265,0,0,0,6.7,7.167,20.97,20.97,0,0,0,19.034.454,15.249,15.249,0,0,0,6.2-5.884,17.713,17.713,0,0,0,2.251-9.152v-5.094h-16.921Z" transform="translate(-3214.542 -3496.185)" fill="#fff"/><path d="M4014.841,3650.213a13.278,13.278,0,0,0-5.163-5.489,17.058,17.058,0,0,0-15.894,0,13.277,13.277,0,0,0-5.163,5.489,19.437,19.437,0,0,0,0,16.408,13.275,13.275,0,0,0,5.163,5.489,17.058,17.058,0,0,0,15.894,0,13.277,13.277,0,0,0,5.163-5.489,19.435,19.435,0,0,0,0-16.408Zm-7.454,12.883a7.347,7.347,0,0,1-2.123,3.268,5.2,5.2,0,0,1-3.494,1.194,5.341,5.341,0,0,1-3.544-1.194,7.226,7.226,0,0,1-2.152-3.268,15.81,15.81,0,0,1,0-9.438,7.292,7.292,0,0,1,2.152-3.277,5.318,5.318,0,0,1,3.544-1.2,5.175,5.175,0,0,1,3.494,1.2,7.415,7.415,0,0,1,2.123,3.277,15.815,15.815,0,0,1,0,9.438Z" transform="translate(-3748.658 -3632.493)" fill="#fff"/></svg>