<svg xmlns="http://www.w3.org/2000/svg" width="189.158" height="202.426" viewBox="0 0 189.158 202.426"><g transform="translate(2.5 2.5)"><path d="M3518.719,1128.07l-62.773-36.49a4.239,4.239,0,0,0-6.359,3.7v13.147l-30.993-33.91,10.959-7.945a68.108,68.108,0,0,0,18.677-19.743,46.676,46.676,0,0,0,6.66-24.62,43.865,43.865,0,0,0-6.008-22.556,44.646,44.646,0,0,0-17.14-16.507q-11.132-6.236-26.409-6.237-15.649,0-27.387,6.518a46.911,46.911,0,0,0-18.211,17.68,49.16,49.16,0,0,0-6.474,25.135,53.413,53.413,0,0,0,4.937,22.931,100.241,100.241,0,0,0,12.343,19.883c.325.41.65.815.976,1.223a168.815,168.815,0,0,0-17.883,14.159,57.512,57.512,0,0,0-12.482,16.085,43.178,43.178,0,0,0-4.471,19.977,50.355,50.355,0,0,0,7.685,27.34q7.685,12.24,22.031,19.367t34.094,7.128a91.4,91.4,0,0,0,25.85-3.845,67.265,67.265,0,0,0,22.936-11.862l.312.35v9.281a4.239,4.239,0,0,0,6.359,3.7l62.773-36.49A4.283,4.283,0,0,0,3518.719,1128.07Zm-129.175-110.037a17.88,17.88,0,0,1,6.381-6.471,18.331,18.331,0,0,1,9.688-2.485q8.384-.092,12.948,4.783a15.256,15.256,0,0,1,4.564,10.6,19.859,19.859,0,0,1-3.354,11.114q-3.353,5.113-10.526,9.707l-9.938,6.579a85.934,85.934,0,0,1-8.692-12.769,25.467,25.467,0,0,1-3.354-12.193A17.515,17.515,0,0,1,3389.545,1018.033Zm32.79,119.581a46.151,46.151,0,0,1-19.888,4.643,31.318,31.318,0,0,1-14.438-3.142,23.335,23.335,0,0,1-9.5-8.582,22.932,22.932,0,0,1-3.354-12.286,21.985,21.985,0,0,1,3.772-11.583q3.773-6.05,11.691-11.864l1.095-.794,36.158,40.59A55.24,55.24,0,0,1,3422.334,1137.614Z" transform="translate(-3336.681 -976.907)" fill="none" stroke="#01d95e" stroke-miterlimit="10" stroke-width="5"/></g></svg>